<svg xmlns="http://www.w3.org/2000/svg" viewBox="0 0 512 512" width="512" height="512" role="img" aria-label="BergerOS"><rect x="0" y="0" width="512" height="512" rx="71.68" fill="#22452b"/><path fill="#f5f4ef" d="M171.1727272727273 371.4327272727273V140.56727272727272H263.6090909090909Q289.0854545454546 140.56727272727272 306.10727272727274 148.12Q323.1290909090909 155.67272727272726 331.6963636363636 169.03090909090906Q340.26363636363635 182.3890909090909 340.26363636363635 199.7490909090909Q340.26363636363635 213.27636363636364 334.8527272727273 223.47818181818184Q329.44181818181823 233.68 320.02909090909094 240.16181818181818Q310.61636363636364 246.64363636363635 298.5545454545455 249.3490909090909V251.60363636363638Q311.74363636363637 252.16727272727275 323.29818181818183 259.0436363636364Q334.8527272727273 265.92 342.0672727272728 278.26363636363635Q349.2818181818182 290.60727272727274 349.2818181818182 307.6290909090909Q349.2818181818182 326.00363636363636 340.20727272727277 340.37636363636364Q331.13272727272727 354.7490909090909 313.43454545454546 363.0909090909091Q295.73636363636365 371.4327272727273 269.8090909090909 371.4327272727273ZM219.98363636363638 331.5272727272727H259.77636363636367Q280.18 331.5272727272727 289.5363636363636 323.69272727272727Q298.89272727272726 315.85818181818183 298.89272727272726 302.78181818181815Q298.89272727272726 293.2 294.2709090909091 285.8727272727273Q289.64909090909094 278.54545454545456 281.1381818181818 274.37454545454545Q272.6272727272727 270.20363636363635 260.9036363636364 270.20363636363635H219.98363636363638ZM219.98363636363638 237.17454545454547H256.1690909090909Q266.2018181818182 237.17454545454547 274.03636363636366 233.62363636363636Q281.8709090909091 230.07272727272726 286.43636363636364 223.53454545454545Q291.0018181818182 216.99636363636364 291.0018181818182 207.86545454545455Q291.0018181818182 195.35272727272726 282.15272727272725 187.68727272727273Q273.3036363636364 180.0218181818182 257.07090909090914 180.0218181818182H219.98363636363638Z"/></svg>